<svg xmlns="http://www.w3.org/2000/svg" viewBox="0 0 720 420" role="img" aria-labelledby="title desc">
  <title id="title">Horizon scanning as deep reading</title>
  <desc id="desc">A restrained pile of books, papers and reports used for horizon scanning.</desc>
  <rect width="720" height="420" rx="34" fill="#fff"/>
  <rect x="30" y="30" width="660" height="360" rx="28" fill="#faf8f7" stroke="#111" stroke-width="2"/>
  <g transform="translate(118 100)">
    <rect x="32" y="188" width="420" height="50" rx="7" fill="#111"/>
    <rect x="0" y="138" width="432" height="52" rx="8" fill="#fff" stroke="#111" stroke-width="4"/>
    <rect x="24" y="149" width="78" height="30" rx="2" fill="#b20f16"/>
    <path d="M126 154H372M126 174H324" stroke="#111" stroke-width="4" stroke-linecap="round" opacity="0.65"/>
    <rect x="60" y="86" width="386" height="52" rx="8" fill="#fff2f3" stroke="#b20f16" stroke-width="4"/>
    <path d="M90 102H386M90 121H304" stroke="#111" stroke-width="4" stroke-linecap="round" opacity="0.65"/>
    <rect x="18" y="36" width="396" height="52" rx="8" fill="#fff" stroke="#111" stroke-width="4"/>
    <rect x="322" y="46" width="58" height="32" rx="2" fill="#111"/>
    <path d="M46 52H282M46 70H220" stroke="#b20f16" stroke-width="4" stroke-linecap="round" opacity="0.9"/>
    <path d="M86 24C160 0 230 0 302 24" fill="none" stroke="#111" stroke-width="4" opacity="0.45"/>
    <rect x="464" y="94" width="88" height="118" rx="8" fill="#fff" stroke="#111" stroke-width="4" transform="rotate(7 508 153)"/>
    <path d="M486 126L532 132M482 150L530 156M478 174L514 179" stroke="#b20f16" stroke-width="4" stroke-linecap="round" transform="rotate(7 508 153)"/>
  </g>
  <g transform="translate(492 82)" fill="none" stroke-linecap="round">
    <circle cx="54" cy="54" r="42" fill="#fff" stroke="#b20f16" stroke-width="5"/>
    <path d="M84 84L134 134" stroke="#111" stroke-width="11"/>
  </g>
  <g font-family="Arial, sans-serif" font-size="18" font-weight="700" fill="#111" opacity="0.72">
    <text x="164" y="72">papers</text><text x="278" y="72">books</text><text x="396" y="72">reports</text>
  </g>
</svg>
