<svg xmlns="http://www.w3.org/2000/svg" viewBox="0 0 720 420" role="img" aria-labelledby="title desc">
  <title id="title">Branching narrative tree</title>
  <desc id="desc">A simple continuous tree showing a base narrative branching into different futures.</desc>
  <rect width="720" height="420" rx="34" fill="#fff"/>
  <g fill="none" stroke-linecap="round" stroke-linejoin="round">
    <path d="M360 356 C360 312 360 270 360 232 C328 206 294 176 252 132 C226 104 190 88 144 90" stroke="#111" stroke-width="9"/>
    <path d="M360 232 C390 194 434 152 492 116 C530 92 578 82 626 92" stroke="#b20f16" stroke-width="9"/>
    <path d="M360 262 C418 244 478 244 548 268 C588 282 618 304 642 334" stroke="#111" stroke-width="7"/>
    <path d="M360 278 C318 268 274 272 230 296 C188 320 150 346 104 356" stroke="#b20f16" stroke-width="7"/>
    <path d="M252 132 C226 158 202 184 162 198" stroke="#b20f16" stroke-width="5" opacity="0.95"/>
    <path d="M492 116 C524 144 564 164 616 170" stroke="#111" stroke-width="5" opacity="0.8"/>
  </g>
  <g font-family="ui-sans-serif, system-ui, -apple-system, Segoe UI, Arial, sans-serif" font-size="18" font-weight="850">
    <text x="296" y="382" fill="#111">base narrative</text>
    <text x="574" y="78" fill="#b20f16">branch</text>
    <text x="106" y="382" fill="#b20f16">episode</text>
  </g>
</svg>
