<svg xmlns="http://www.w3.org/2000/svg" viewBox="0 0 720 420" role="img" aria-labelledby="title desc">
  <title id="title">Narrative branches</title>
  <desc id="desc">A simple continuous branching tree from one base narrative into several futures.</desc>
  <rect width="720" height="420" rx="34" fill="#fff"/>
  <g fill="none" stroke-linecap="round" stroke-linejoin="round">
    <path d="M360 360 C360 318 360 276 360 234" stroke="#111" stroke-width="10"/>
    <path d="M360 234 C326 204 292 174 248 136 C218 110 180 94 132 96" stroke="#111" stroke-width="9"/>
    <path d="M360 234 C398 194 444 154 504 118 C540 96 588 88 636 96" stroke="#b20f16" stroke-width="9"/>
    <path d="M360 260 C414 246 478 250 548 276 C590 292 620 316 646 350" stroke="#111" stroke-width="7"/>
    <path d="M360 278 C312 270 268 278 224 304 C184 328 146 350 96 360" stroke="#b20f16" stroke-width="7"/>
    <path d="M248 136 C224 162 198 184 158 200" stroke="#b20f16" stroke-width="5"/>
    <path d="M504 118 C534 144 572 164 622 172" stroke="#111" stroke-width="5"/>
  </g>
  <g font-family="ui-sans-serif, system-ui, -apple-system, Segoe UI, Arial, sans-serif" font-size="18" font-weight="850">
    <text x="296" y="388" fill="#111">base narrative</text>
    <text x="576" y="80" fill="#b20f16">branch</text>
    <text x="94" y="386" fill="#b20f16">episode</text>
  </g>
</svg>
