<svg xmlns="http://www.w3.org/2000/svg" viewBox="0 0 720 420" role="img" aria-labelledby="title desc">
  <title id="title">Sources of imagination illustration</title>
  <desc id="desc">A restrained line illustration of film, music, text and sport as sources of imagination.</desc>
  <rect width="720" height="420" rx="34" fill="#fff"/>
  <rect x="30" y="30" width="660" height="360" rx="28" fill="#faf8f7" stroke="#111" stroke-width="2"/>
  <g transform="translate(92 86)" fill="none" stroke="#111" stroke-width="4" stroke-linecap="round" stroke-linejoin="round">
    <rect x="0" y="0" width="164" height="112" rx="16" fill="#fff"/>
    <path d="M0 32h164"/>
    <path d="M28 0l-18 32M76 0L58 32M124 0l-18 32"/>
    <circle cx="82" cy="72" r="22" fill="#fff2f3" stroke="#b20f16"/>
    <path d="M76 61l22 11-22 12z" fill="#b20f16" stroke="#b20f16"/>
  </g>
  <g transform="translate(326 84)" fill="none" stroke="#111" stroke-width="4" stroke-linecap="round" stroke-linejoin="round">
    <path d="M68 10v132c0 20-22 34-50 26-20-6-24-26-8-39 14-12 38-11 58 3"/>
    <path d="M68 38c34 18 62 10 92-6v98c0 21-22 34-50 26-20-6-24-26-8-39 14-12 38-11 58 3V32" stroke="#b20f16"/>
  </g>
  <g transform="translate(94 246)">
    <rect x="0" y="0" width="208" height="80" rx="14" fill="#fff" stroke="#111" stroke-width="4"/>
    <line x1="24" y1="24" x2="172" y2="24" stroke="#b20f16" stroke-width="5" stroke-linecap="round"/>
    <line x1="24" y1="48" x2="154" y2="48" stroke="#111" stroke-width="4" stroke-linecap="round" opacity="0.55"/>
  </g>
  <g transform="translate(470 210)" fill="none" stroke="#111" stroke-width="4">
    <circle cx="70" cy="70" r="52" fill="#fff"/>
    <path d="M70 18c30 28 30 76 0 104M18 70c35-16 68-16 104 0M44 28c28 28 28 56 0 84M96 28c-28 28-28 56 0 84" stroke="#b20f16" opacity="0.85"/>
  </g>
  <text x="92" y="364" fill="#111" font-family="Arial, sans-serif" font-size="19" font-weight="700">film · songs · text · sport</text>
  <text x="390" y="366" fill="#b20f16" font-family="Arial, sans-serif" font-size="19" font-weight="700">examples for thinking</text>
</svg>