<svg xmlns="http://www.w3.org/2000/svg" viewBox="0 0 720 420" role="img" aria-labelledby="title desc">
  <title id="title">Narrative foresight illustration</title>
  <desc id="desc">A white, red and black illustration of a book opening into branching futures.</desc>
  <rect width="720" height="420" rx="34" fill="#fff"/>
  <rect x="30" y="30" width="660" height="360" rx="28" fill="#faf8f7" stroke="#111" stroke-width="2"/>
  <path d="M104 128c74-34 150-22 222 24v158c-77-45-153-55-222-20V128z" fill="#fff" stroke="#111" stroke-width="4" stroke-linejoin="round"/>
  <path d="M616 128c-74-34-150-22-222 24v158c77-45 153-55 222-20V128z" fill="#fff" stroke="#111" stroke-width="4" stroke-linejoin="round"/>
  <path d="M326 152c24-19 46-19 68 0v158c-23-13-46-13-68 0V152z" fill="#fff2f3" stroke="#b20f16" stroke-width="4"/>
  <line x1="142" y1="164" x2="270" y2="164" stroke="#111" stroke-width="4" stroke-linecap="round" opacity="0.65"/>
  <line x1="142" y1="192" x2="280" y2="192" stroke="#111" stroke-width="3" stroke-linecap="round" opacity="0.38"/>
  <line x1="142" y1="220" x2="244" y2="220" stroke="#111" stroke-width="3" stroke-linecap="round" opacity="0.38"/>
  <line x1="450" y1="164" x2="578" y2="164" stroke="#111" stroke-width="4" stroke-linecap="round" opacity="0.65"/>
  <line x1="440" y1="192" x2="578" y2="192" stroke="#111" stroke-width="3" stroke-linecap="round" opacity="0.38"/>
  <line x1="474" y1="220" x2="578" y2="220" stroke="#111" stroke-width="3" stroke-linecap="round" opacity="0.38"/>

  <path d="M358 92 C385 82 428 68 468 62" fill="none" stroke="#111" stroke-width="5" stroke-linecap="round"/>
  <path d="M468 62 C516 56 554 70 592 92" fill="none" stroke="#b20f16" stroke-width="5" stroke-linecap="round"/>
  <path d="M468 62 C510 108 538 130 594 142" fill="none" stroke="#111" stroke-width="4" stroke-linecap="round" opacity="0.58"/>
  <path d="M468 62 C500 30 542 24 594 36" fill="none" stroke="#b20f16" stroke-width="4" stroke-linecap="round" opacity="0.85"/>
  <circle cx="358" cy="92" r="11" fill="#111"/>
  <circle cx="468" cy="62" r="16" fill="#b20f16"/>
  <circle cx="592" cy="92" r="10" fill="#111"/>
  <circle cx="594" cy="142" r="9" fill="#111"/>
  <circle cx="594" cy="36" r="9" fill="#b20f16"/>
  <text x="100" y="346" fill="#111" font-family="Arial, sans-serif" font-size="18" font-weight="700">base narrative</text>
  <text x="304" y="346" fill="#b20f16" font-family="Arial, sans-serif" font-size="18" font-weight="700">episode</text>
  <text x="442" y="346" fill="#111" font-family="Arial, sans-serif" font-size="18" font-weight="700">branches</text>
</svg>